<svg version="1.1" id="Layer_1" xmlns="http://www.w3.org/2000/svg" xmlns:xlink="http://www.w3.org/1999/xlink" x="0px" y="0px"
	 width="100%" viewBox="0 0 512 512" enable-background="new 0 0 512 512" xml:space="preserve">
<path fill="#D80027" opacity="1.000000" stroke="none" 
	d="
M278.000000,513.000000 
	C185.355820,513.000000 93.211639,513.000000 1.033728,513.000000 
	C1.033728,342.397461 1.033728,171.794907 1.033728,1.096182 
	C171.560867,1.096182 342.121796,1.096182 512.841370,1.096182 
	C512.841370,171.666550 512.841370,342.333252 512.841370,513.000000 
	C434.794891,513.000000 356.647430,513.000000 278.000000,513.000000 
M258.928528,356.427673 
	C262.790527,352.848450 266.652557,349.269226 271.060913,345.183685 
	C260.167664,334.320862 250.181107,324.362213 240.210098,314.419067 
	C259.999329,285.504211 260.631683,249.808182 241.533417,215.657684 
	C227.344864,190.286438 206.070557,174.192062 177.470520,168.246841 
	C177.708420,168.992065 178.226379,169.352219 178.782623,169.637833 
	C200.514847,180.796890 215.371948,198.159622 224.279541,220.673630 
	C232.272049,240.874741 233.968582,261.390106 225.662750,281.972839 
	C224.042175,285.988831 221.464966,289.618744 219.748642,292.678589 
	C198.299683,271.233887 177.378799,250.317154 155.994553,228.937164 
	C164.855164,220.203476 174.190659,211.001724 183.896652,201.434784 
	C182.430481,200.945175 181.564102,200.501648 180.653656,200.375092 
	C168.141525,198.635925 155.638809,196.804077 143.090042,195.380463 
	C141.198944,195.165924 138.592407,196.404221 137.151962,197.820084 
	C122.533119,212.189560 108.083702,226.731476 93.603508,241.241745 
	C92.694878,242.152252 91.925713,243.201920 91.656319,243.520035 
	C100.154587,251.961227 108.385590,260.136932 117.311760,269.003143 
	C123.619331,262.591461 130.346893,255.752838 136.377136,249.623032 
	C156.662216,269.913971 176.834808,290.092346 197.188095,310.451477 
	C170.860901,318.748505 148.798676,309.679413 128.934845,291.957001 
	C109.395172,309.820557 90.161308,327.404572 71.665207,344.314056 
	C77.979858,350.636108 83.820396,356.483459 89.853691,362.523834 
	C103.276337,347.855774 117.071922,332.780212 130.928162,317.638367 
	C158.300354,339.381897 187.398376,347.770721 221.316452,331.703186 
	C231.392883,341.880493 241.774368,352.365936 252.583328,363.283081 
	C254.607666,361.082092 256.518585,359.004395 258.928528,356.427673 
M134.039734,159.182449 
	C145.190338,151.025131 156.424683,142.978287 167.433640,134.634079 
	C170.242218,132.505325 172.032013,132.623489 174.761276,134.687408 
	C185.514801,142.819351 196.458359,150.700333 207.353760,158.643784 
	C208.289246,159.325821 209.389252,159.782227 211.147858,160.746445 
	C206.361542,145.895432 201.969894,131.969193 197.337250,118.123589 
	C196.290817,114.996109 196.554245,113.158165 199.455124,111.106812 
	C210.733322,103.131424 221.778900,94.827553 232.954636,86.705917 
	C233.806274,86.087021 234.998749,85.937119 236.032806,85.569206 
	C235.569702,85.042953 235.106598,84.516693 234.643494,83.990440 
	C220.158279,83.990440 205.671646,83.881760 191.188858,84.068970 
	C187.688843,84.114212 185.764465,83.306969 184.903137,79.648224 
	C183.839661,75.130814 182.176834,70.752792 180.739166,66.325508 
	C177.690781,56.938038 174.620514,47.557667 171.559219,38.174381 
	C171.219116,38.179699 170.879013,38.185017 170.538910,38.190331 
	C165.598801,53.411263 160.658676,68.632195 155.617935,84.163193 
	C139.300446,84.163193 123.247337,84.163193 105.812996,84.163193 
	C116.784737,92.232155 126.673309,99.455475 136.508102,106.751297 
	C146.091812,113.860878 146.050644,113.887962 142.444580,125.076256 
	C138.691925,136.719391 134.976624,148.374557 131.028183,160.701324 
	C132.386978,160.108704 132.962524,159.857697 134.039734,159.182449 
z"/>
<path fill="#FED743" opacity="1.000000" stroke="none" 
	d="
M258.679016,356.677185 
	C256.518585,359.004395 254.607666,361.082092 252.583328,363.283081 
	C241.774368,352.365936 231.392883,341.880493 221.316452,331.703186 
	C187.398376,347.770721 158.300354,339.381897 130.928162,317.638367 
	C117.071922,332.780212 103.276337,347.855774 89.853691,362.523834 
	C83.820396,356.483459 77.979858,350.636108 71.665207,344.314056 
	C90.161308,327.404572 109.395172,309.820557 128.934845,291.957001 
	C148.798676,309.679413 170.860901,318.748505 197.188095,310.451477 
	C176.834808,290.092346 156.662216,269.913971 136.377136,249.623032 
	C130.346893,255.752838 123.619331,262.591461 117.311760,269.003143 
	C108.385590,260.136932 100.154587,251.961227 91.656319,243.520035 
	C91.925713,243.201920 92.694878,242.152252 93.603508,241.241745 
	C108.083702,226.731476 122.533119,212.189560 137.151962,197.820084 
	C138.592407,196.404221 141.198944,195.165924 143.090042,195.380463 
	C155.638809,196.804077 168.141525,198.635925 180.653656,200.375092 
	C181.564102,200.501648 182.430481,200.945175 183.896652,201.434784 
	C174.190659,211.001724 164.855164,220.203476 155.994553,228.937164 
	C177.378799,250.317154 198.299683,271.233887 219.748642,292.678589 
	C221.464966,289.618744 224.042175,285.988831 225.662750,281.972839 
	C233.968582,261.390106 232.272049,240.874741 224.279541,220.673630 
	C215.371948,198.159622 200.514847,180.796890 178.782623,169.637833 
	C178.226379,169.352219 177.708420,168.992065 177.470520,168.246841 
	C206.070557,174.192062 227.344864,190.286438 241.533417,215.657684 
	C260.631683,249.808182 259.999329,285.504211 240.210098,314.419067 
	C250.181107,324.362213 260.167664,334.320862 271.060913,345.183685 
	C266.652557,349.269226 262.790527,352.848450 258.679016,356.677185 
z"/>
<path fill="#FED643" opacity="1.000000" stroke="none" 
	d="
M133.788895,159.394562 
	C132.962524,159.857697 132.386978,160.108704 131.028183,160.701324 
	C134.976624,148.374557 138.691925,136.719391 142.444580,125.076256 
	C146.050644,113.887962 146.091812,113.860878 136.508102,106.751297 
	C126.673309,99.455475 116.784737,92.232155 105.812996,84.163193 
	C123.247337,84.163193 139.300446,84.163193 155.617935,84.163193 
	C160.658676,68.632195 165.598801,53.411263 170.538910,38.190331 
	C170.879013,38.185017 171.219116,38.179699 171.559219,38.174381 
	C174.620514,47.557667 177.690781,56.938038 180.739166,66.325508 
	C182.176834,70.752792 183.839661,75.130814 184.903137,79.648224 
	C185.764465,83.306969 187.688843,84.114212 191.188858,84.068970 
	C205.671646,83.881760 220.158279,83.990440 234.643494,83.990440 
	C235.106598,84.516693 235.569702,85.042953 236.032806,85.569206 
	C234.998749,85.937119 233.806274,86.087021 232.954636,86.705917 
	C221.778900,94.827553 210.733322,103.131424 199.455124,111.106812 
	C196.554245,113.158165 196.290817,114.996109 197.337250,118.123589 
	C201.969894,131.969193 206.361542,145.895432 211.147858,160.746445 
	C209.389252,159.782227 208.289246,159.325821 207.353760,158.643784 
	C196.458359,150.700333 185.514801,142.819351 174.761276,134.687408 
	C172.032013,132.623489 170.242218,132.505325 167.433640,134.634079 
	C156.424683,142.978287 145.190338,151.025131 133.788895,159.394562 
M182.071732,125.324959 
	C183.490417,126.366196 184.909088,127.407433 187.540726,129.338913 
	C185.525482,122.903870 184.047089,117.861183 182.348907,112.893608 
	C181.474792,110.336578 181.833984,108.653984 184.203568,107.008438 
	C188.765854,103.840172 193.081100,100.316185 198.726685,96.001244 
	C192.266373,96.001244 187.326065,95.736839 182.429199,96.084419 
	C178.470062,96.365433 176.349289,95.300903 175.474014,91.150192 
	C174.590271,86.959358 172.896835,82.939270 171.558105,78.844376 
	C169.362869,82.408455 167.727905,85.758209 167.195129,89.274933 
	C166.303177,95.162712 163.219452,96.758881 157.660843,96.101074 
	C153.417953,95.598969 149.068024,96.001312 144.765717,96.001312 
	C148.802734,100.192619 152.774887,103.502045 157.050888,106.356270 
	C160.003265,108.326981 160.846512,110.297379 159.536819,113.718414 
	C157.736221,118.421730 156.466644,123.328331 154.600296,129.336502 
	C160.841202,124.730568 165.997223,120.925293 171.142105,117.128250 
	C174.858704,119.924103 178.180801,122.423195 182.071732,125.324959 
z"/>
<path fill="#D80427" opacity="1.000000" stroke="none" 
	d="
M181.787323,125.123619 
	C178.180801,122.423195 174.858704,119.924103 171.142105,117.128250 
	C165.997223,120.925293 160.841202,124.730568 154.600296,129.336502 
	C156.466644,123.328331 157.736221,118.421730 159.536819,113.718414 
	C160.846512,110.297379 160.003265,108.326981 157.050888,106.356270 
	C152.774887,103.502045 148.802734,100.192619 144.765717,96.001312 
	C149.068024,96.001312 153.417953,95.598969 157.660843,96.101074 
	C163.219452,96.758881 166.303177,95.162712 167.195129,89.274933 
	C167.727905,85.758209 169.362869,82.408455 171.558105,78.844376 
	C172.896835,82.939270 174.590271,86.959358 175.474014,91.150192 
	C176.349289,95.300903 178.470062,96.365433 182.429199,96.084419 
	C187.326065,95.736839 192.266373,96.001244 198.726685,96.001244 
	C193.081100,100.316185 188.765854,103.840172 184.203568,107.008438 
	C181.833984,108.653984 181.474792,110.336578 182.348907,112.893608 
	C184.047089,117.861183 185.525482,122.903870 187.540726,129.338913 
	C184.909088,127.407433 183.490417,126.366196 181.787323,125.123619 
z"/>
</svg>